<?xml version="1.0" ?><!DOCTYPE svg  PUBLIC '-//W3C//DTD SVG 1.1//EN'  'http://www.w3.org/Graphics/SVG/1.1/DTD/svg11.dtd'><svg height="100mm" style="shape-rendering:geometricPrecision; text-rendering:geometricPrecision; image-rendering:optimizeQuality; fill-rule:evenodd; clip-rule:evenodd" viewBox="0 0 100 100" width="100mm" xml:space="preserve" xmlns="http://www.w3.org/2000/svg" xmlns:xlink="http://www.w3.org/1999/xlink"><defs><style type="text/css">
   <![CDATA[
    .fil0 {fill:#008DD2}
   ]]>
  </style></defs><g id="Ebene_x0020_1"><path class="fil0" d="M23.4834 76.5166c-14.6445,-14.6446 -14.6444,-38.3884 0.0003,-53.0331 14.6445,-14.6446 38.3883,-14.6446 53.0328,0 14.6447,14.6447 14.6447,38.3884 0.0001,53.033 -14.6446,14.6446 -38.3885,14.6448 -53.0332,0.0001zm26.5165 -48.3915c6.0406,0 11.5085,2.4493 15.4665,6.4084l-5.155 5.155c-2.6389,-2.6391 -6.2845,-4.2715 -10.3115,-4.2715 -8.0539,0 -14.583,6.529 -14.583,14.583 0,8.054 6.5291,14.583 14.583,14.583 6.8453,0 12.5879,-4.7168 14.1577,-11.0773l-7.9076 0 0 -7.6723 7.7278 0 7.4989 0c0.2602,1.3491 0.398,2.7416 0.398,4.1666 0,0.1865 -0.0023,0.3724 -0.007,0.5577l-0.0001 0.0069 -0.0001 0.0041c-0.0047,0.1822 -0.0116,0.3637 -0.0208,0.5446l-0.0012 0.0247c-0.009,0.1747 -0.0201,0.349 -0.0332,0.5227l-0.0035 0.0461c-0.0127,0.1639 -0.0272,0.3274 -0.0435,0.4902l-0.0082 0.0812c-0.0155,0.1488 -0.0324,0.2972 -0.0509,0.4451l-0.0162 0.127c-0.0175,0.1343 -0.0363,0.2682 -0.0562,0.4017 -0.0084,0.0562 -0.0171,0.1123 -0.0259,0.1684l-0.0136 0.0853 -0.0005 0c-1.6777,10.4145 -10.7062,18.3692 -21.5939,18.3692 -12.0811,0 -21.8748,-9.7937 -21.8748,-21.8749 0,-12.0812 9.7937,-21.8749 21.8748,-21.8749z"/></g></svg>